<?xml version="1.0" encoding="utf-8"?>
<svg version="1.1" xmlns:xlink="http://www.w3.org/1999/xlink" width="102px" height="78px" xmlns="http://www.w3.org/2000/svg">
  <g transform="matrix(1 0 0 1 -153 -253 )">
    <path d="M 100.157419354839 10.7676767676768  C 101.385806451613 11.993265993266  102 13.4814814814815  102 15.2323232323232  C 102 16.983164983165  101.385806451613 18.4713804713805  100.157419354839 19.6969696969697  L 52.5135483870968 67.2323232323232  L 43.5638709677419 76.1616161616162  C 42.3354838709677 77.3872053872054  40.8438709677419 78  39.0890322580645 78  C 37.3341935483871 78  35.8425806451613 77.3872053872054  34.6141935483871 76.1616161616162  L 25.6645161290323 67.2323232323232  L 1.84258064516129 43.4646464646465  C 0.614193548387097 42.2390572390572  0 40.7508417508417  0 39  C 0 37.2491582491582  0.614193548387097 35.7609427609428  1.84258064516129 34.5353535353535  L 10.7922580645161 25.6060606060606  C 12.0206451612903 24.3804713804714  13.5122580645161 23.7676767676768  15.2670967741935 23.7676767676768  C 17.021935483871 23.7676767676768  18.5135483870968 24.3804713804714  19.741935483871 25.6060606060606  L 39.0890322580645 44.9747474747475  L 82.258064516129 1.83838383838384  C 83.4864516129032 0.61279461279461  84.978064516129 0  86.7329032258065 0  C 88.4877419354839 0  89.9793548387097 0.61279461279461  91.2077419354839 1.83838383838384  L 100.157419354839 10.7676767676768  Z " fill-rule="nonzero" fill="#1d8621" stroke="none" transform="matrix(1 0 0 1 153 253 )" />
  </g>
</svg>