<?xml version="1.0" encoding="utf-8"?>
<svg version="1.1" xmlns:xlink="http://www.w3.org/1999/xlink" width="24px" height="29px" xmlns="http://www.w3.org/2000/svg">
  <g transform="matrix(1 0 0 1 -65 -180 )">
    <path d="M 6.66666666666667 9.22727272727273  L 6.66666666666667 13.1818181818182  L 17.3333333333333 13.1818181818182  L 17.3333333333333 9.22727272727273  C 17.3333333333333 7.7717803030303  16.8125 6.52911931818182  15.7708333333333 5.49928977272727  C 14.7291666666667 4.46946022727273  13.4722222222222 3.95454545454545  12 3.95454545454545  C 10.5277777777778 3.95454545454545  9.27083333333333 4.46946022727273  8.22916666666667 5.49928977272727  C 7.1875 6.52911931818182  6.66666666666667 7.7717803030303  6.66666666666667 9.22727272727273  Z M 23.4166666666667 13.7585227272727  C 23.8055555555556 14.1429924242424  24 14.6098484848485  24 15.1590909090909  L 24 27.0227272727273  C 24 27.5719696969697  23.8055555555556 28.0388257575758  23.4166666666667 28.4232954545455  C 23.0277777777778 28.8077651515152  22.5555555555556 29  22 29  L 2 29  C 1.44444444444444 29  0.972222222222222 28.8077651515152  0.583333333333333 28.4232954545455  C 0.194444444444444 28.0388257575758  0 27.5719696969697  0 27.0227272727273  L 0 15.1590909090909  C 0 14.6098484848485  0.194444444444444 14.1429924242424  0.583333333333333 13.7585227272727  C 0.972222222222222 13.374053030303  1.44444444444444 13.1818181818182  2 13.1818181818182  L 2.66666666666667 13.1818181818182  L 2.66666666666667 9.22727272727273  C 2.66666666666667 6.70075757575757  3.58333333333333 4.53125  5.41666666666667 2.71875  C 7.25 0.90625  9.44444444444444 0  12 0  C 14.5555555555556 0  16.75 0.90625  18.5833333333333 2.71875  C 20.4166666666667 4.53125  21.3333333333333 6.70075757575757  21.3333333333333 9.22727272727273  L 21.3333333333333 13.1818181818182  L 22 13.1818181818182  C 22.5555555555556 13.1818181818182  23.0277777777778 13.374053030303  23.4166666666667 13.7585227272727  Z " fill-rule="nonzero" fill="#cbc9c9" stroke="none" transform="matrix(1 0 0 1 65 180 )" />
  </g>
</svg>