<?xml version="1.0" encoding="utf-8"?>
<svg version="1.1" xmlns:xlink="http://www.w3.org/1999/xlink" width="20px" height="34px" xmlns="http://www.w3.org/2000/svg">
  <g transform="matrix(1 0 0 1 -67 -104 )">
    <path d="M 11.4713541666667 32.10078125  C 11.8793402777778 31.6846354166667  12.0833333333333 31.184375  12.0833333333333 30.6  C 12.0833333333333 30.015625  11.8793402777778 29.5153645833333  11.4713541666667 29.09921875  C 11.0633680555556 28.6830729166667  10.5729166666667 28.475  10 28.475  C 9.42708333333333 28.475  8.93663194444444 28.6830729166667  8.52864583333333 29.09921875  C 8.12065972222222 29.5153645833333  7.91666666666667 30.015625  7.91666666666667 30.6  C 7.91666666666667 31.184375  8.12065972222222 31.6846354166667  8.52864583333333 32.10078125  C 8.93663194444444 32.5169270833333  9.42708333333333 32.725  10 32.725  C 10.5729166666667 32.725  11.0633680555556 32.5169270833333  11.4713541666667 32.10078125  Z M 17.2526041666667 26.94765625  C 17.4175347222222 26.7794270833333  17.5 26.5802083333333  17.5 26.35  L 17.5 7.65  C 17.5 7.41979166666666  17.4175347222222 7.22057291666666  17.2526041666667 7.05234375  C 17.0876736111111 6.88411458333333  16.8923611111111 6.8  16.6666666666667 7  L 3.33333333333333 7  C 3.10763888888889 6.8  2.91232638888889 6.88411458333333  2.74739583333333 7.05234375  C 2.58246527777778 7.22057291666666  2.5 7.41979166666666  2.5 7.65  L 2.5 26.35  C 2.5 26.5802083333333  2.58246527777778 26.7794270833333  2.74739583333333 26.94765625  C 2.91232638888889 27.1158854166667  3.10763888888889 27.2  3.33333333333333 27  L 16.6666666666667 27  C 16.8923611111111 27.2  17.0876736111111 27.1158854166667  17.2526041666667 26.94765625  Z M 12.0833333333333 4.25  C 12.3611111111111 4.25  12.5 4.10833333333333  12.5 3.825  C 12.5 3.54166666666667  12.3611111111111 3.4  12.0833333333333 3.4  L 7.91666666666667 3.4  C 7.63888888888889 3.4  7.5 3.54166666666667  7.5 3.825  C 7.5 4.10833333333333  7.63888888888889 4.25  7.91666666666667 4.25  L 12.0833333333333 4.25  Z M 19.0104166666667 1.009375  C 19.6701388888889 1.68229166666667  20 2.47916666666667  20 3.4  L 20 30.6  C 20 31.5208333333333  19.6701388888889 32.3177083333333  19.0104166666667 32.990625  C 18.3506944444444 33.6635416666667  17.5694444444444 34  16.6666666666667 34  L 3.33333333333333 34  C 2.43055555555556 34  1.64930555555556 33.6635416666667  0.989583333333333 32.990625  C 0.329861111111111 32.3177083333333  0 31.5208333333333  0 30.6  L 0 3.4  C 0 2.47916666666667  0.329861111111111 1.68229166666667  0.989583333333333 1.009375  C 1.64930555555556 0.336458333333329  2.43055555555556 0  3.33333333333333 0  L 16.6666666666667 0  C 17.5694444444444 0  18.3506944444444 0.336458333333329  19.0104166666667 1.009375  Z " fill-rule="nonzero" fill="#cbc9c9" stroke="none" transform="matrix(1 0 0 1 67 104 )" />
  </g>
</svg>